<?xml version="1.0" standalone="no"?>
<!DOCTYPE svg PUBLIC "-//W3C//DTD SVG 20010904//EN"
 "http://www.w3.org/TR/2001/REC-SVG-20010904/DTD/svg10.dtd">
<svg version="1.0" xmlns="http://www.w3.org/2000/svg"
 width="850.000000pt" height="600.000000pt" viewBox="0 0 850.000000 600.000000"
 preserveAspectRatio="xMidYMid meet">
<metadata>
Created by potrace 1.11, written by Peter Selinger 2001-2013
</metadata>
<g transform="translate(0.000000,600.000000) scale(0.100000,-0.100000)"
fill="#000000" stroke="none">
<path d="M5145 5275 c-85 -24 -186 -80 -417 -234 -123 -82 -255 -164 -294
-184 -136 -68 -359 -158 -578 -233 -315 -108 -417 -162 -529 -284 -160 -173
-164 -361 -12 -570 43 -60 78 -129 72 -145 -3 -7 -38 -21 -78 -30 -41 -10
-102 -33 -136 -52 -35 -18 -65 -33 -67 -33 -2 0 -6 14 -10 30 -3 17 -21 55
-41 85 -19 31 -35 60 -35 66 0 5 -28 41 -62 78 -35 38 -68 75 -74 83 -7 7 -38
36 -71 64 -53 47 -75 57 -214 104 -144 49 -158 52 -224 46 -126 -10 -191 -43
-229 -116 -29 -54 -56 -80 -113 -109 -48 -24 -70 -51 -79 -99 -5 -24 -13 -34
-33 -38 -36 -8 -153 -79 -181 -109 -33 -36 -31 -81 7 -141 17 -27 37 -66 44
-88 15 -40 119 -146 144 -146 12 0 13 -12 9 -58 -5 -46 -1 -74 16 -128 27 -81
48 -104 99 -104 34 0 131 46 146 70 17 27 22 4 9 -44 -8 -30 -14 -64 -14 -77
1 -13 4 -136 8 -274 l8 -250 58 -125 c53 -115 65 -133 151 -223 82 -86 100
-100 154 -118 59 -20 61 -22 48 -43 -7 -11 -33 -55 -57 -96 -24 -41 -72 -113
-107 -160 -36 -47 -80 -118 -99 -158 -37 -77 -91 -145 -134 -167 -23 -12 -31
-11 -71 7 -63 30 -154 30 -196 1 -44 -32 -103 -125 -103 -162 0 -61 4 -62 434
-59 l387 3 68 75 c38 41 112 113 166 160 54 47 155 148 225 226 109 121 131
150 154 211 28 74 49 93 104 93 89 0 478 83 787 168 99 27 194 52 211 56 l31
7 5 -84 4 -85 96 -143 c65 -97 123 -170 178 -224 142 -139 149 -179 65 -353
l-54 -112 161 0 161 0 36 38 c43 46 144 220 161 279 17 55 3 95 -61 175 -68
85 -121 181 -117 213 l3 26 47 -30 c54 -34 125 -130 191 -259 55 -107 79 -186
75 -249 l-3 -48 -60 -6 c-33 -3 -70 -12 -83 -20 -25 -16 -52 -66 -52 -98 0
-21 3 -21 265 -21 220 0 265 2 265 14 0 8 -9 115 -21 237 -13 143 -18 251 -14
300 9 100 -6 145 -68 217 -29 32 -71 99 -96 152 -58 119 -58 152 -7 354 37
143 38 153 34 277 -4 98 -2 129 8 129 6 0 48 -10 91 -23 156 -45 315 -172 426
-339 30 -45 105 -183 166 -305 221 -442 302 -556 631 -884 244 -243 281 -271
369 -285 59 -9 241 15 241 32 0 38 -47 130 -91 178 -64 70 -122 106 -239 151
-119 45 -185 88 -276 181 -140 141 -273 371 -478 822 -97 212 -157 314 -248
421 -165 195 -382 316 -653 364 -49 9 -142 26 -205 38 -95 18 -154 22 -345 23
-225 1 -233 0 -365 -31 -120 -28 -318 -58 -327 -49 -2 2 18 11 44 21 72 26
164 79 226 129 96 79 157 198 157 307 0 55 -28 200 -41 214 -18 19 -8 31 55
67 165 95 358 273 496 456 98 130 204 335 225 437 17 82 20 258 4 319 -9 38
-8 50 15 104 43 102 29 169 -41 198 -41 18 -172 17 -238 -1z m239 -46 c34 -27
34 -63 0 -148 -24 -59 -26 -71 -15 -109 16 -60 13 -235 -5 -312 -19 -84 -98
-248 -169 -353 -149 -223 -383 -438 -586 -539 l-60 -30 26 -33 c33 -44 59
-168 52 -250 -12 -156 -134 -282 -364 -376 -82 -33 -174 -86 -187 -107 -9 -15
361 29 494 59 235 54 488 50 822 -10 319 -59 470 -127 642 -290 137 -131 195
-225 356 -576 181 -397 294 -586 438 -737 99 -103 177 -156 292 -198 107 -39
157 -68 212 -124 46 -46 97 -130 86 -142 -11 -10 -87 -23 -139 -24 -94 0 -129
21 -298 182 -369 353 -481 503 -698 933 -143 284 -209 391 -297 483 -117 123
-228 191 -371 227 -54 14 -104 25 -111 25 -11 0 -13 -28 -7 -153 l6 -152 -38
-145 c-23 -89 -38 -170 -39 -210 -1 -59 4 -74 51 -170 28 -58 72 -130 98 -159
62 -73 68 -90 60 -191 -4 -54 1 -161 14 -295 11 -115 18 -211 17 -213 -2 -1
-103 -1 -226 0 l-222 3 20 24 c16 21 30 26 86 29 53 4 69 9 81 25 19 27 19
107 0 180 -28 108 -153 324 -229 398 -39 38 -131 87 -142 76 -4 -3 -9 -27 -12
-52 -4 -38 1 -56 27 -108 18 -34 47 -82 66 -107 113 -147 114 -154 25 -307
-34 -59 -74 -120 -88 -135 -25 -28 -28 -28 -144 -28 -65 0 -118 2 -118 4 0 2
17 39 37 82 48 100 55 171 23 235 -12 24 -61 82 -109 129 -59 58 -115 128
-176 220 l-90 135 -3 103 c-3 73 -7 102 -16 102 -7 0 -136 -33 -287 -74 -339
-91 -466 -120 -639 -146 -74 -11 -149 -23 -166 -26 -50 -7 -78 -37 -107 -112
-24 -59 -46 -89 -150 -203 -68 -74 -180 -185 -250 -247 -70 -63 -127 -117
-127 -121 0 -3 -16 -23 -36 -44 l-36 -37 -374 0 c-331 0 -375 2 -381 16 -8 21
14 60 63 111 49 52 84 56 174 18 57 -24 61 -24 100 -9 53 21 111 89 154 178
18 39 64 112 100 161 66 89 203 313 198 324 -1 3 -36 17 -78 31 -72 24 -81 31
-169 123 -51 54 -96 109 -99 123 -4 14 -27 68 -52 120 l-45 94 -2 263 c-3 240
-1 270 19 357 12 52 22 96 21 96 -1 1 -47 -27 -101 -62 -98 -63 -146 -78 -163
-51 -35 56 -52 163 -33 212 l10 26 37 -30 c21 -17 40 -27 44 -23 3 4 16 38 27
76 l20 68 -57 -4 c-39 -3 -68 -11 -89 -27 -18 -12 -37 -21 -42 -19 -24 8 -109
101 -115 125 -3 15 -22 53 -42 84 -24 39 -33 64 -28 78 9 28 146 112 195 118
38 5 40 7 40 42 0 47 21 76 73 102 57 29 85 56 113 110 13 26 38 56 56 67 37
22 120 42 176 42 37 0 144 -32 261 -77 71 -27 191 -118 209 -157 6 -13 27 -37
47 -53 20 -15 48 -50 62 -78 14 -27 36 -65 49 -85 13 -19 26 -54 30 -77 4 -25
12 -43 19 -43 8 0 47 18 89 40 42 22 106 47 143 56 84 19 101 29 109 58 8 31
-16 83 -86 192 -80 124 -95 163 -95 254 0 88 26 152 95 238 88 109 215 180
502 278 425 145 614 234 898 425 320 215 391 247 541 248 63 1 81 -3 103 -20z
m-3314 -1973 c0 -22 -13 -26 -33 -11 -14 10 -15 14 -5 18 24 10 38 7 38 -7z"/>
</g>
</svg>
