<?xml version="1.0" encoding="UTF-8" standalone="no"?>
<svg
   xmlns:dc="http://purl.org/dc/elements/1.1/"
   xmlns:cc="http://creativecommons.org/ns#"
   xmlns:rdf="http://www.w3.org/1999/02/22-rdf-syntax-ns#"
   xmlns:svg="http://www.w3.org/2000/svg"
   xmlns="http://www.w3.org/2000/svg"
   xmlns:xlink="http://www.w3.org/1999/xlink"
   xmlns:sodipodi="http://sodipodi.sourceforge.net/DTD/sodipodi-0.dtd"
   xmlns:inkscape="http://www.inkscape.org/namespaces/inkscape"
   width="662.5899"
   height="436.95023"
   viewBox="0 0 530.06992 349.56032"
   id="svg2"
   version="1.1"
   inkscape:version="0.48.4 r9939"
   sodipodi:docname="nuvoleo2.svg">
  <metadata
     id="metadata9">
    <rdf:RDF>
      <cc:Work
         rdf:about="">
        <dc:format>image/svg+xml</dc:format>
        <dc:type
           rdf:resource="http://purl.org/dc/dcmitype/StillImage" />
        <dc:title></dc:title>
      </cc:Work>
    </rdf:RDF>
  </metadata>
  <defs
     id="defs7">
    <linearGradient
       id="linearGradient3913">
      <stop
         style="stop-color:#005aff;stop-opacity:0;"
         offset="0"
         id="stop3915" />
      <stop
         style="stop-color:#005cff;stop-opacity:1;"
         offset="1"
         id="stop3917" />
    </linearGradient>
    <radialGradient
       inkscape:collect="always"
       xlink:href="#linearGradient3913-7"
       id="radialGradient3927-0"
       gradientUnits="userSpaceOnUse"
       gradientTransform="matrix(1.2499937,0.0038138,-0.00312032,1.0227028,0.66712407,44.138489)"
       cx="996.00861"
       cy="269.75351"
       fx="996.00861"
       fy="269.75351"
       r="264.37198" />
    <linearGradient
       id="linearGradient3913-7">
      <stop
         style="stop-color:#005aff;stop-opacity:0;"
         offset="0"
         id="stop3915-0" />
      <stop
         style="stop-color:#005cff;stop-opacity:1;"
         offset="1"
         id="stop3917-6" />
    </linearGradient>
    <radialGradient
       r="264.37198"
       fy="269.75351"
       fx="996.00861"
       cy="269.75351"
       cx="996.00861"
       gradientTransform="matrix(0.99999536,0.00305104,-0.00249626,0.81816257,-76.70179,75.826987)"
       gradientUnits="userSpaceOnUse"
       id="radialGradient4002"
       xlink:href="#linearGradient3913-7"
       inkscape:collect="always" />
  </defs>
  <sodipodi:namedview
     pagecolor="#ffffff"
     bordercolor="#666666"
     borderopacity="1"
     objecttolerance="10"
     gridtolerance="10"
     guidetolerance="10"
     inkscape:pageopacity="0"
     inkscape:pageshadow="2"
     inkscape:window-width="1487"
     inkscape:window-height="972"
     id="namedview5"
     showgrid="false"
     fit-margin-top="0"
     fit-margin-left="0"
     fit-margin-right="0"
     fit-margin-bottom="0"
     inkscape:zoom="0.60611535"
     inkscape:cx="125.34777"
     inkscape:cy="157.92117"
     inkscape:window-x="142"
     inkscape:window-y="0"
     inkscape:window-maximized="0"
     inkscape:current-layer="layer1" />
  <g
     style="display:inline"
     inkscape:label="nuvolabianca"
     id="g4094"
     inkscape:groupmode="layer"
     transform="translate(-652.28143,-82.606199)">
    <path
       sodipodi:nodetypes="cccssccccccccccccccccccccccccccccccccccccccccccccccccccccccccsccccccccccccccccccccccccscccccccccccccccccccccccccccccccccccc"
       inkscape:connector-curvature="0"
       id="path4096"
       d="m 947.13995,83.766199 c -68.50627,0.452315 -120.77917,48.595131 -133.75013,91.950041 -82.92371,-39.11853 -164.03083,39.33236 -97.475,111.62504 0,0 -61.44343,12.1801 -62.42502,49.70002 -1.12104,42.85023 16.38532,57.75119 36.82501,68.82503 19.17906,10.39086 34.96449,12.54208 56.20002,13 -1.26032,-0.56412 -1.98408,-1.54718 -1.6,-3.2 0.36576,-1.59475 1.84592,-3.72471 2.77496,-5.1 3.2188,-4.76963 5.96672,-7.44184 12.07505,-6.425 5.92544,0.98757 7.32776,6.08782 13.87504,0.85 6.496,-5.20854 7.268,-10.73564 11.04993,-17.10001 l 9.2,-12.45 9.02504,-15.35001 c -4.08192,-1.7118 -8.95024,-2.6933 -12.42504,-5.4 -4.41848,-3.44553 -5.05184,-5.86376 -8.00001,-9.97501 -3.05776,-4.25023 -5.76512,-7.45053 -7.84992,-12.425 -1.63872,-3.8991 -3.84888,-11.90828 -3.9,-16.10001 l -0.75008,-13.9 0.72504,-8.05001 0,-9.5 c 0.0951,-5.65481 1.15696,-6.0298 2.22504,-10.975 -5.20128,2.80179 -13.88336,12.02689 -18.37505,6.95 -1.38992,-1.58012 -1.33376,-4.11087 -2.17504,-6.225 -0.66568,-1.68988 -1.81768,-3.198 -1.82496,-5.10001 -0.008,-2.79448 1.8384,-2.58463 1.87504,-7.325 l 6.60001,2.175 2.17496,-7.3 c -2.2312,0.022 -4.45169,-0.0814 -6.50001,0.95 l -3.82504,2.6 c -2.09216,0.75349 -3.68808,-1.28138 -5.1,-2.525 -6.59112,-5.83768 -4.1592,-3.9454 -7.1,-10.5 -1.33864,-2.97737 -4.57065,-5.26667 -4.30001,-8.80001 0.2268,-2.94809 2.61457,-4.29971 4.87505,-5.675 4.77696,-2.88958 6.66352,-5.00312 12.45,-5.325 0.0368,-3.85521 0.17096,-6.63899 3.67496,-9.07501 2.47265,-1.7118 4.46001,-0.79422 7.82505,-4.825 3.37968,-4.05271 1.5572,-6.8764 8.97496,-10.3 3.84792,-1.77033 12.03993,-2.56137 16.10001,-1.625 l 5.85008,2.075 c 5.52304,1.57281 2.97384,0.46582 8.77496,2.975 1.83768,0.79559 3.93264,1.0232 5.60001,2.075 -0.2176,0.0305 8.98272,7.66934 8.95,7.375 1.39232,1.55835 1.14528,2.61724 3.17504,4.67501 l 4.54992,3.975 c 1.51424,1.76301 1.81496,3.66873 3,5.6 3.00664,4.91593 4.80625,6.20999 5.45009,12.45 6.25456,-2.07024 6.37864,-4.9365 16.82496,-7.175 1.78496,-0.3804 5.53488,-0.71689 6.32496,-2.575 1.02416,-2.38481 -2.57896,-8.03948 -3.92496,-10 -4.53552,-6.59849 -9.13064,-12.85621 -9.65,-21.22501 -0.79008,-12.91166 9.99328,-24.53677 20.42505,-30.55002 10.92184,-6.29854 23.30329,-9.47107 35.12497,-13.575 10.44641,-3.62843 26.01505,-10.26276 35.82498,-15.32501 14.79176,-7.62994 34.85513,-25.27776 49.02506,-29.25001 5.90352,-1.66059 18.57987,-3.9232 21.24997,3.875 1.4411,4.19172 -2.9836,9.40453 -3.5249,13.15001 -0.3439,2.42871 0.8841,3.40743 1.2499,6.575 l 0,10.975 c 0.022,10.32202 -3.32601,16.61672 -7.82497,25.60001 -9.79528,19.53208 -32.08081,42.26062 -52.12498,51.20003 4.30136,5.31826 2.73384,4.61715 4.17496,10.25 4.27952,16.77416 -5.28928,28.131 -19.52505,35.60001 -6.07904,3.18953 -11.43736,3.91809 -17.57496,8.30001 l 21.95,-2.2 c 13.29209,-2.59696 15.80169,-4.513 30.72498,-5.325 l 5.85008,0 19.02497,1.15 9.52496,1.875 c 16.64261,2.50187 28.62901,4.50342 43.15011,14.05 6.5399,4.29412 13.0121,10.71788 17.9499,16.77501 6.9131,8.48585 11.3967,18.66387 15.9251,28.52501 8.5004,18.51524 15.5035,35.40994 27.925,51.95002 5.4718,7.27881 12.828,14.55892 20.875,18.87501 l 12.425,4.775 c 0.1087,0.0516 0.2166,0.0973 0.325,0.15 0.6194,-0.24384 1.1711,-0.46417 1.85,-0.725 26.326,-10.11412 43.1399,-46.59598 43.95,-73.15003 1.266,-56.19223 -43.9092,-114.21752 -120.75,-109.77504 -2.3738,-43.12588 6.3645,-140.276141 -113.27505,-142.075061 z m 63.54995,211.950081 c 0.3804,8.25907 1.6606,16.63789 0,24.87501 -1.2802,6.32782 -5.8143,18.49219 -4.9,24.12501 0.7023,4.31609 5.8665,14.749 8.5,18.27501 2.5238,3.38704 5.0711,4.54977 6.6,8.80001 1.5802,4.63795 0.095,9.18889 0,13.9 l 2.775,31.72501 c 7.1734,-0.0642 18.3034,-0.15503 22.5751,-0.2 45.3091,-0.47698 60.9138,-0.16425 69.825,-1.325 l -11.0751,-10.45 c -13.943,-14.01627 -23.2028,-26.51866 -32.6249,-43.90002 -12.4069,-22.88984 -18.8569,-46.58544 -43.4001,-60.07502 -6.6423,-3.64308 -11.3474,-4.00163 -18.275,-5.75001 z m -77.54995,49.75002 -16.10001,4.27501 -21.95009,6.025 -8.04992,1.55 -9.50001,2.45 -18.3,2.925 c -2.54577,0.37308 -6.47545,0.24729 -8.57505,1.725 -3.30648,2.34093 -2.95992,8.14735 -6.32496,12.50001 l -5.45008,5.85 -11.10001,12.3 -15.22496,13.62501 c -7.17465,6.69035 -6.94977,9.38302 -10.40001,10.275 38.87834,-0.15142 99.91348,-0.59236 153.62502,-1 2.67185,-5.16323 7.59681,-13.37694 6.90001,-18.375 -1.17776,-8.34685 -9.57681,-13.06297 -14.80001,-19.02501 -3.16016,-3.61379 -6.1976,-9.10035 -8.87496,-13.17501 -1.98248,-3.01395 -4.35392,-5.14658 -5.4,-8.775 -0.73161,-2.52381 -0.47496,-10.1068 -0.47496,-13.15001 z m 43.87497,19.75001 c -0.40232,1.3314 -1.0408,2.9924 -0.97496,4.375 0.13168,2.79449 6.00096,12.2402 7.92497,14.62501 2.90416,3.60649 6.6084,6.5311 5.95,11.725 -0.3804,3.02125 -2.4388,6.19268 -3.97496,8.77501 -1.72984,2.90478 -5.44969,10.26844 -8.27505,13.075 3.30552,-0.026 7.38105,-0.0496 10.55001,-0.075 0.74304,-3.48473 2.9872,-5.35093 7.1,-5.6 2.86032,-0.17556 5.99237,1.23879 7.37497,-2.375 1.0022,-2.61892 -0.8191,-10.28784 -1.675,-13.075 -1.93853,-6.29857 -10.42117,-20.84677 -14.82501,-25.37501 -2.45792,-2.52381 -5.97817,-4.62655 -9.17497,-6.07501 z"
       style="fill:#ffffff;fill-opacity:1;stroke:#005fd1;stroke-width:2.32000089;stroke-miterlimit:4;stroke-opacity:1;stroke-dasharray:none"
       inkscape:export-ydpi="173.87"
       inkscape:export-xdpi="173.87"
       inkscape:export-filename="/locale/paolo/Documents/Cloud-Openstack/logo/blucloud.png" />
  </g>
  <g
     inkscape:groupmode="layer"
     id="layer2"
     inkscape:label="coloreLeo"
     style="display:inline"
     transform="translate(-652.28143,-82.606199)">
    <path
       id="Selection"
       d="m 850.6944,236.9504 c 1.78494,-0.3804 5.53774,-0.71691 6.32781,-2.57502 1.02414,-2.3848 -2.58233,-8.05424 -3.92837,-10.01476 -4.53553,-6.59848 -9.12961,-12.84582 -9.649,-21.21461 -0.79006,-12.91164 9.9855,-24.54311 20.41724,-30.55635 10.92188,-6.29854 23.29219,-9.48073 35.11385,-13.58465 10.44638,-3.62844 26.03546,-10.24155 35.84539,-15.3038 14.79171,-7.62994 34.84319,-25.28197 49.01308,-29.25422 5.90351,-1.66059 18.5957,-3.94299 21.2658,3.85521 1.4411,4.19171 -3.0066,9.40758 -3.5479,13.15306 -0.3439,2.42871 0.8998,3.41628 1.2655,6.58385 0,0 0,10.97307 0,10.97307 0.022,10.32202 -3.32847,16.62055 -7.82744,25.60384 -9.7953,19.53206 -32.07796,42.26829 -52.12212,51.20768 4.30145,5.31828 2.73596,4.60869 4.17709,10.24154 4.27951,16.77417 -5.30366,28.14228 -19.5394,35.6113 -6.07907,3.1895 -11.41931,3.89909 -17.55692,8.28101 0,0 21.94615,-2.19462 21.94615,-2.19462 13.29207,-2.59696 15.80124,-4.49896 30.72462,-5.31097 0,0 5.85231,0 5.85231,0 0,0 19.02,1.13389 19.02,1.13389 0,0 9.51,1.88737 9.51,1.88737 16.64251,2.50186 28.63971,4.50627 43.16081,14.05285 6.5399,4.29413 13.014,10.70973 17.9519,16.76686 6.9131,8.48585 11.3974,18.66887 15.9256,28.53001 8.5005,18.51524 15.494,35.39915 27.9155,51.93923 5.4719,7.27881 12.8239,14.57225 20.8708,18.88833 0,0 12.4362,4.755 12.4362,4.755 8.259,3.92104 15.6915,10.96576 17.5569,20.24898 -6.5765,0.29993 -11.3462,2.68475 -18.2885,0.78275 -6.6862,-1.82885 -10.7828,-7.05935 -15.3696,-11.75583 0,0 -13.9431,-13.16769 -13.9431,-13.16769 -13.9431,-14.01628 -23.2191,-26.51095 -32.6413,-43.89231 -12.4069,-22.88984 -18.8444,-46.599 -43.3875,-60.08857 -6.6424,-3.64307 -11.3608,-4.00152 -18.2885,-5.7499 0.3804,8.25907 1.6606,16.63519 0,24.87231 -1.2802,6.32781 -5.8011,18.50793 -4.8866,24.14077 0.7022,4.31608 5.8596,14.75514 8.4931,18.28115 2.5238,3.38702 5.0696,4.53554 6.5985,8.78578 1.5801,4.63795 0.095,9.18812 0,13.89923 0,0 2.9627,33.65077 2.9627,33.65077 0,0 -35.84537,0 -35.84537,0 0.36577,-4.53554 2.60429,-6.92767 7.31539,-7.21297 2.86031,-0.17557 5.98398,1.2363 7.36658,-2.3775 1.0022,-2.61891 -0.8047,-10.30006 -1.6606,-13.08722 -1.93855,-6.29855 -10.4244,-20.84153 -14.82827,-25.36975 -2.45797,-2.52381 -5.96935,-4.63796 -9.16618,-6.08641 -0.40234,1.3314 -1.05341,3.00663 -0.98757,4.38923 0.13167,2.79448 5.9913,12.24596 7.91524,14.63077 2.90421,3.60649 6.62774,6.5107 5.96937,11.70462 -0.3804,3.02125 -2.43604,6.19613 -3.97227,8.77846 -1.93857,3.25535 -6.38633,12.15086 -9.26127,13.90655 -1.24361,0.75348 -2.65549,0.69496 -4.05273,0.72422 0,0 -17.55691,0 -17.55691,0 2.3848,-4.95983 8.36879,-14.29426 7.60799,-19.75154 -1.17778,-8.34685 -9.56852,-13.05796 -14.79171,-19.02 -3.16025,-3.6138 -6.19613,-9.09302 -8.87356,-13.16769 -1.98247,-3.01394 -4.3746,-5.15003 -5.42069,-8.77846 -0.73155,-2.52381 -0.4682,-10.1245 -0.4682,-13.1677 0,0 -16.09385,4.2795 -16.09385,4.2795 0,0 -21.94614,6.0352 -21.94614,6.0352 0,0 -8.04694,1.55817 -8.04694,1.55817 0,0 -9.51,2.42871 -9.51,2.42871 0,0 -18.28846,2.94079 -18.28846,2.94079 -2.54575,0.37308 -6.48143,0.24872 -8.58094,1.72643 -3.30656,2.34092 -2.97004,8.1347 -6.33513,12.48736 0,0 -5.44265,5.85231 -5.44265,5.85231 0,0 -11.09742,12.30447 -11.09742,12.30447 0,0 -15.23796,13.62125 -15.23796,13.62125 -9.3198,8.69068 -6.10103,10.63657 -14.75513,10.6512 0,0 -40.96616,0 -40.96616,0 -3.11636,0 -13.14575,1.6167 -11.91676,-3.67231 0.36577,-1.59476 1.85079,-3.73086 2.77984,-5.10615 3.21877,-4.76963 5.95473,-7.43975 12.06307,-6.42291 5.92547,0.98758 7.34465,6.07909 13.89192,0.84127 6.49606,-5.20855 7.26418,-10.73167 11.04623,-17.09605 0,0 9.18081,-12.43616 9.18081,-12.43616 0,0 9.04182,-15.36231 9.04182,-15.36231 -4.08199,-1.7118 -8.96135,-2.69937 -12.43616,-5.40607 -4.41849,-3.44554 -5.0403,-5.84499 -7.9884,-9.95624 -3.05783,-4.25023 -5.76452,-7.46169 -7.84941,-12.43615 -1.63864,-3.8991 -3.86252,-11.90213 -3.91373,-16.09385 0,0 -0.73154,-13.89923 -0.73154,-13.89923 0,0 0.70228,-8.04692 0.70228,-8.04692 0,0 0,-9.51 0,-9.51 0.0951,-5.6548 1.15583,-6.02788 2.22388,-10.97308 -5.20124,2.80179 -13.87729,12.04112 -18.36894,6.96424 -1.38992,-1.58012 -1.32408,-4.11856 -2.16535,-6.2327 -0.6657,-1.68986 -1.81422,-3.1895 -1.82153,-5.09151 -0.007,-2.79448 1.83616,-2.60428 1.87274,-7.34465 0,0 6.58384,2.19462 6.58384,2.19462 0,0 2.19462,-7.31539 2.19462,-7.31539 -2.23119,0.022 -4.4697,-0.0731 -6.51801,0.95832 0,0 -3.81863,2.58965 -3.81863,2.58965 -2.0922,0.75348 -3.67964,-1.27288 -5.09151,-2.5165 -6.59115,-5.83768 -4.16244,-3.95762 -7.10323,-10.51221 -1.33871,-2.97736 -4.5648,-5.26707 -4.29413,-8.80041 0.22678,-2.94809 2.61891,-4.28681 4.87936,-5.6621 4.77694,-2.88958 6.64968,-4.99641 12.43615,-5.31829 0.0366,-3.85521 0.18288,-6.64237 3.68695,-9.07839 2.4726,-1.7118 4.45507,-0.80469 7.82015,-4.83547 3.37971,-4.05272 1.55818,-6.87645 8.97598,-10.30005 3.84789,-1.77033 12.03381,-2.5604 16.09385,-1.62403 0,0 5.8523,2.07758 5.8523,2.07758 5.52312,1.57281 2.97737,0.47549 8.77847,2.98467 1.90931,0.82664 4.0893,1.02415 5.78647,2.18731 -1.89469,-1.29484 10.24885,8.77113 8.59557,7.05202 1.60207,1.66791 1.21436,2.74327 3.3285,4.88668 0,0 4.55017,3.95762 4.55017,3.95762 1.51429,1.76301 1.82153,3.68695 3.00663,5.61823 3.00663,4.91593 4.81352,6.19612 5.45727,12.43614 6.25466,-2.07024 6.37902,-4.92325 16.8254,-7.16176 z"
       style="fill:#ffae14;fill-opacity:1;stroke:none"
       inkscape:connector-curvature="0" />
  </g>
  <g
     inkscape:groupmode="layer"
     id="layer1"
     inkscape:label="nuvoleo"
     style="display:inline"
     transform="translate(-652.28143,-82.606199)">
    <path
       inkscape:export-filename="/locale/paolo/Documents/Cloud-Openstack/logo/blucloud.png"
       inkscape:export-xdpi="173.87"
       inkscape:export-ydpi="173.87"
       style="fill:url(#radialGradient4002);fill-opacity:1;stroke:#005fd1;stroke-width:2.32000089;stroke-miterlimit:4;stroke-opacity:1;stroke-dasharray:none"
       d="m 947.13995,83.766199 c -68.50627,0.452315 -120.77917,48.595131 -133.75013,91.950041 -82.92371,-39.11853 -164.03083,39.33236 -97.475,111.62504 0,0 -61.44343,12.1801 -62.42502,49.70002 -1.12104,42.85023 16.38532,57.75119 36.82501,68.82503 19.17906,10.39086 34.96449,12.54208 56.20002,13 -1.26032,-0.56412 -1.98408,-1.54718 -1.6,-3.2 0.36576,-1.59475 1.84592,-3.72471 2.77496,-5.1 3.2188,-4.76963 5.96672,-7.44184 12.07505,-6.425 5.92544,0.98757 7.32776,6.08782 13.87504,0.85 6.496,-5.20854 7.268,-10.73564 11.04993,-17.10001 l 9.2,-12.45 9.02504,-15.35001 c -4.08192,-1.7118 -8.95024,-2.6933 -12.42504,-5.4 -4.41848,-3.44553 -5.05184,-5.86376 -8.00001,-9.97501 -3.05776,-4.25023 -5.76512,-7.45053 -7.84992,-12.425 -1.63872,-3.8991 -3.84888,-11.90828 -3.9,-16.10001 l -0.75008,-13.9 0.72504,-8.05001 0,-9.5 c 0.0951,-5.65481 1.15696,-6.0298 2.22504,-10.975 -5.20128,2.80179 -13.88336,12.02689 -18.37505,6.95 -1.38992,-1.58012 -1.33376,-4.11087 -2.17504,-6.225 -0.66568,-1.68988 -1.81768,-3.198 -1.82496,-5.10001 -0.008,-2.79448 1.8384,-2.58463 1.87504,-7.325 l 6.60001,2.175 2.17496,-7.3 c -2.2312,0.022 -4.45169,-0.0814 -6.50001,0.95 l -3.82504,2.6 c -2.09216,0.75349 -3.68808,-1.28138 -5.1,-2.525 -6.59112,-5.83768 -4.1592,-3.9454 -7.1,-10.5 -1.33864,-2.97737 -4.57065,-5.26667 -4.30001,-8.80001 0.2268,-2.94809 2.61457,-4.29971 4.87505,-5.675 4.77696,-2.88958 6.66352,-5.00312 12.45,-5.325 0.0368,-3.85521 0.17096,-6.63899 3.67496,-9.07501 2.47265,-1.7118 4.46001,-0.79422 7.82505,-4.825 3.37968,-4.05271 1.5572,-6.8764 8.97496,-10.3 3.84792,-1.77033 12.03993,-2.56137 16.10001,-1.625 l 5.85008,2.075 c 5.52304,1.57281 2.97384,0.46582 8.77496,2.975 1.83768,0.79559 3.93264,1.0232 5.60001,2.075 -0.2176,0.0305 8.98272,7.66934 8.95,7.375 1.39232,1.55835 1.14528,2.61724 3.17504,4.67501 l 4.54992,3.975 c 1.51424,1.76301 1.81496,3.66873 3,5.6 3.00664,4.91593 4.80625,6.20999 5.45009,12.45 6.25456,-2.07024 6.37864,-4.9365 16.82496,-7.175 1.78496,-0.3804 5.53488,-0.71689 6.32496,-2.575 1.02416,-2.38481 -2.57896,-8.03948 -3.92496,-10 -4.53552,-6.59849 -9.13064,-12.85621 -9.65,-21.22501 -0.79008,-12.91166 9.99328,-24.53677 20.42505,-30.55002 10.92184,-6.29854 23.30329,-9.47107 35.12497,-13.575 10.44641,-3.62843 26.01505,-10.26276 35.82498,-15.32501 14.79176,-7.62994 34.85513,-25.27776 49.02506,-29.25001 5.90352,-1.66059 18.57987,-3.9232 21.24997,3.875 1.4411,4.19172 -2.9836,9.40453 -3.5249,13.15001 -0.3439,2.42871 0.8841,3.40743 1.2499,6.575 l 0,10.975 c 0.022,10.32202 -3.32601,16.61672 -7.82497,25.60001 -9.79528,19.53208 -32.08081,42.26062 -52.12498,51.20003 4.30136,5.31826 2.73384,4.61715 4.17496,10.25 4.27952,16.77416 -5.28928,28.131 -19.52505,35.60001 -6.07904,3.18953 -11.43736,3.91809 -17.57496,8.30001 l 21.95,-2.2 c 13.29209,-2.59696 15.80169,-4.513 30.72498,-5.325 l 5.85008,0 19.02497,1.15 9.52496,1.875 c 16.64261,2.50187 28.62901,4.50342 43.15011,14.05 6.5399,4.29412 13.0121,10.71788 17.9499,16.77501 6.9131,8.48585 11.3967,18.66387 15.9251,28.52501 8.5004,18.51524 15.5035,35.40994 27.925,51.95002 5.4718,7.27881 12.828,14.55892 20.875,18.87501 l 12.425,4.775 c 0.1087,0.0516 0.2166,0.0973 0.325,0.15 0.6194,-0.24384 1.1711,-0.46417 1.85,-0.725 26.326,-10.11412 43.1399,-46.59598 43.95,-73.15003 1.266,-56.19223 -43.9092,-114.21752 -120.75,-109.77504 -2.3738,-43.12588 6.3645,-140.276141 -113.27505,-142.075061 z m 63.54995,211.950081 c 0.3804,8.25907 1.6606,16.63789 0,24.87501 -1.2802,6.32782 -5.8143,18.49219 -4.9,24.12501 0.7023,4.31609 5.8665,14.749 8.5,18.27501 2.5238,3.38704 5.0711,4.54977 6.6,8.80001 1.5802,4.63795 0.095,9.18889 0,13.9 l 2.775,31.72501 c 7.1734,-0.0642 18.3034,-0.15503 22.5751,-0.2 45.3091,-0.47698 60.9138,-0.16425 69.825,-1.325 l -11.0751,-10.45 c -13.943,-14.01627 -23.2028,-26.51866 -32.6249,-43.90002 -12.4069,-22.88984 -18.8569,-46.58544 -43.4001,-60.07502 -6.6423,-3.64308 -11.3474,-4.00163 -18.275,-5.75001 z m -77.54995,49.75002 -16.10001,4.27501 -21.95009,6.025 -8.04992,1.55 -9.50001,2.45 -18.3,2.925 c -2.54577,0.37308 -6.47545,0.24729 -8.57505,1.725 -3.30648,2.34093 -2.95992,8.14735 -6.32496,12.50001 l -5.45008,5.85 -11.10001,12.3 -15.22496,13.62501 c -7.17465,6.69035 -6.94977,9.38302 -10.40001,10.275 38.87834,-0.15142 99.91348,-0.59236 153.62502,-1 2.67185,-5.16323 7.59681,-13.37694 6.90001,-18.375 -1.17776,-8.34685 -9.57681,-13.06297 -14.80001,-19.02501 -3.16016,-3.61379 -6.1976,-9.10035 -8.87496,-13.17501 -1.98248,-3.01395 -4.35392,-5.14658 -5.4,-8.775 -0.73161,-2.52381 -0.47496,-10.1068 -0.47496,-13.15001 z m 43.87497,19.75001 c -0.40232,1.3314 -1.0408,2.9924 -0.97496,4.375 0.13168,2.79449 6.00096,12.2402 7.92497,14.62501 2.90416,3.60649 6.6084,6.5311 5.95,11.725 -0.3804,3.02125 -2.4388,6.19268 -3.97496,8.77501 -1.72984,2.90478 -5.44969,10.26844 -8.27505,13.075 3.30552,-0.026 7.38105,-0.0496 10.55001,-0.075 0.74304,-3.48473 2.9872,-5.35093 7.1,-5.6 2.86032,-0.17556 5.99237,1.23879 7.37497,-2.375 1.0022,-2.61892 -0.8191,-10.28784 -1.675,-13.075 -1.93853,-6.29857 -10.42117,-20.84677 -14.82501,-25.37501 -2.45792,-2.52381 -5.97817,-4.62655 -9.17497,-6.07501 z"
       id="Selection-0-2"
       inkscape:connector-curvature="0"
       sodipodi:nodetypes="cccssccccccccccccccccccccccccccccccccccccccccccccccccccccccccsccccccccccccccccccccccccscccccccccccccccccccccccccccccccccccc" />
  </g>
</svg>
